<svg width="161" height="160" viewBox="0 0 161 160" fill="none" xmlns="http://www.w3.org/2000/svg">
<path d="M36.2496 119.903C36.1554 119.903 36.0651 119.866 35.9986 119.799C35.932 119.733 35.8946 119.642 35.8946 119.548V113.585C35.8946 113.491 35.932 113.401 35.9986 113.334C36.0651 113.268 36.1554 113.23 36.2496 113.23C36.3437 113.23 36.434 113.268 36.5005 113.334C36.5671 113.401 36.6045 113.491 36.6045 113.585V119.548C36.6045 119.642 36.5671 119.733 36.5005 119.799C36.434 119.866 36.3437 119.903 36.2496 119.903Z" fill="#212529"/>
<path d="M51.8316 68.969C43.597 71.8973 41.8577 56.2621 49.4712 58.7999C57.0847 61.3378 53.8548 47.6725 53.8548 47.6725C45.1942 18.0881 71.7971 12.4446 71.7971 12.4446C71.7971 12.4446 74.6188 10.7054 78.5232 16.1005C78.5232 16.1005 86.8111 12.5333 92.5789 23.1816C98.3467 33.8298 91.7093 50.3701 94.7263 55.215C97.9917 60.4149 101.115 54.7713 103.05 59.5098C104.682 63.5029 96.7139 68.0284 94.7263 68.0816L51.8316 68.969Z" fill="#212529"/>
<path d="M49.8262 69.6966C47.7498 69.6966 46.4543 68.4543 45.7799 67.567C44.0052 65.2066 43.7212 61.533 45.1587 59.5453C46.1171 58.2143 47.6788 57.8238 49.5778 58.4627C50.9975 58.9242 52.0978 58.8354 52.8432 58.1433C55.3278 55.8717 53.5709 48.063 53.4999 47.7613C50.7491 38.3021 51.2637 30.2804 55.0616 23.9269C60.4745 14.8759 70.8388 12.3026 71.6729 12.1074C72.1165 11.8767 74.9383 10.6876 78.6475 15.6746C80.1929 15.174 81.8349 15.0462 83.4392 15.3019C86.0835 15.7101 89.8459 17.3783 92.8984 23.0041C96.3058 29.3043 95.4362 37.6454 94.7441 44.3361C94.2471 49.039 93.839 53.1031 95.028 55.0198C96.5897 57.5221 98.0628 57.3447 99.4648 57.1672C100.867 56.9897 102.34 56.83 103.387 59.3856C103.848 60.5214 103.653 61.7637 102.801 63.077C100.938 65.9342 96.3235 68.4011 94.7441 68.4366L51.9026 69.3239C51.2364 69.5643 50.5344 69.6903 49.8262 69.6966ZM47.9095 58.8709C47.4865 58.8535 47.066 58.9436 46.6874 59.133C46.3087 59.3223 45.9842 59.6046 45.7444 59.9535C44.5021 61.6927 44.7861 65.0469 46.3478 67.141C47.1109 68.1349 48.8146 69.6789 51.7252 68.6318H51.8316L94.7263 67.7445C95.9686 67.709 100.388 65.5083 102.198 62.722C102.925 61.604 103.103 60.5924 102.73 59.6695C101.896 57.6286 100.902 57.7351 99.5535 57.8948C98.2047 58.0546 96.2171 58.2853 94.4246 55.4102C93.0936 53.2983 93.5373 49.1278 94.0342 44.2828C94.7263 37.6809 95.5782 29.464 92.2772 23.359C89.9701 19.1175 86.8821 16.5797 83.3327 16.0118C80.6706 15.6036 78.683 16.4377 78.6652 16.4554L78.399 16.5619L78.2393 16.3312C74.5656 11.2555 72.0101 12.7463 71.9923 12.764L71.9391 12.7995H71.8858C71.7793 12.835 61.1134 15.1954 55.665 24.3174C51.9736 30.4934 51.4767 38.3376 54.192 47.6015C54.2807 47.9387 56.1619 56.0846 53.3224 58.6757C52.3818 59.5453 51.033 59.6873 49.3471 59.1371C48.886 58.9692 48.4002 58.8792 47.9095 58.8709Z" fill="#212529"/>
<path d="M88.8167 32.6763H88.7102C79.0025 29.9077 72.0102 21.5666 71.9392 21.4779C71.878 21.4049 71.8483 21.3106 71.8566 21.2158C71.8649 21.1209 71.9106 21.0333 71.9836 20.9721C72.0565 20.9109 72.1508 20.8812 72.2457 20.8895C72.3405 20.8978 72.4282 20.9435 72.4894 21.0164C72.5603 21.1052 79.4107 29.2866 88.9054 31.9841C88.9512 31.9964 88.994 32.0177 89.0314 32.0468C89.0689 32.0759 89.1001 32.1122 89.1232 32.1535C89.1464 32.1949 89.161 32.2405 89.1663 32.2876C89.1715 32.3347 89.1673 32.3824 89.1539 32.4278C89.1339 32.5012 89.0897 32.5656 89.0285 32.6107C88.9673 32.6558 88.8926 32.6789 88.8167 32.6763Z" fill="#212529"/>
<path d="M84.806 43.644H84.7172C84.6705 43.6396 84.6252 43.6259 84.5838 43.6039C84.5424 43.5818 84.5058 43.5517 84.4761 43.5154C84.4464 43.4791 84.4242 43.4373 84.4107 43.3923C84.3973 43.3474 84.3929 43.3002 84.3978 43.2536C84.3999 43.2077 84.4115 43.1627 84.4317 43.1214C84.4518 43.0801 84.4803 43.0433 84.5152 43.0134C84.5501 42.9835 84.5907 42.961 84.6346 42.9474C84.6785 42.9338 84.7248 42.9292 84.7705 42.9341C84.8947 42.9341 87.8585 43.1116 88.3909 38.2667C88.6926 35.6046 87.9472 34.806 87.2373 34.0429C86.5274 33.2797 85.853 32.5698 86.0483 30.5644C86.0577 30.4703 86.1041 30.3838 86.1773 30.3238C86.2505 30.2639 86.3446 30.2356 86.4387 30.245C86.5328 30.2544 86.6194 30.3008 86.6793 30.374C86.7392 30.4473 86.7676 30.5413 86.7581 30.6354C86.5984 32.3214 87.1308 32.8893 87.752 33.5637C88.3731 34.2381 89.4202 35.3561 89.1008 38.3554C88.5329 43.3956 85.3916 43.644 84.806 43.644Z" fill="#212529"/>
<path d="M80.5464 33.1199H80.4931L76.4646 32.765C76.3452 32.7516 76.2359 32.6921 76.1597 32.5994C76.0834 32.5066 76.0464 32.3877 76.0564 32.2681C76.0607 32.2104 76.0768 32.1542 76.1035 32.103C76.1303 32.0517 76.1672 32.0064 76.2121 31.9699C76.2569 31.9334 76.3087 31.9063 76.3643 31.8905C76.4199 31.8746 76.4782 31.8703 76.5356 31.8776L80.5819 32.2326C80.6402 32.2371 80.6971 32.253 80.7492 32.2796C80.8014 32.3061 80.8477 32.3427 80.8857 32.3873C80.9236 32.4318 80.9524 32.4834 80.9703 32.5391C80.9882 32.5948 80.9949 32.6535 80.9901 32.7118C80.974 32.8203 80.9212 32.9201 80.8405 32.9944C80.7597 33.0687 80.6559 33.113 80.5464 33.1199Z" fill="#212529"/>
<path d="M96.4477 119.548C95.4006 117.72 94.8149 116.975 95.0457 114.881C95.3828 111.668 95.8975 106.54 96.146 101.712C98.5773 106.54 104.398 114.756 114.212 109.61C116.218 108.563 113.982 76.4938 86.9707 65.881L84.007 70.0871C83.5313 70.8347 82.9716 71.5254 82.3387 72.1457C71.0871 82.794 62.1071 65.881 62.1071 65.881C34.5459 74.1334 36.995 97.0804 34.4749 109.61C33.1616 116.158 41.3962 113.443 49.3292 112.875C52.7544 112.645 53.3755 107.267 53.4288 103.043C53.4264 102.982 53.4485 102.923 53.4901 102.878C53.5317 102.833 53.5894 102.806 53.6506 102.804C53.7118 102.801 53.7714 102.823 53.8163 102.865C53.8613 102.907 53.8878 102.964 53.8902 103.026L54.8308 112.503C55.1006 115.271 54.5968 118.06 53.3755 120.56" fill="#ADB5BD"/>
<path d="M62.1071 65.881C62.1071 65.881 67.2892 68.4011 69.7738 53.4935L77.5648 52.9789C77.5648 52.9789 78.044 67.3717 86.9707 65.881C86.9707 65.881 75.7191 88.5262 62.1071 65.881Z" fill="#F8F9FA"/>
<path d="M93.1114 31.8244C93.0231 31.8248 92.9378 31.7923 92.8722 31.7333C92.8065 31.6742 92.7653 31.5928 92.7565 31.5049C91.6561 20.8744 82.7826 18.1591 82.6939 18.1414C82.6046 18.1128 82.5303 18.0502 82.4871 17.9671C82.4439 17.884 82.4353 17.7871 82.4632 17.6977C82.4734 17.6526 82.4928 17.6101 82.5201 17.5728C82.5475 17.5355 82.5822 17.5042 82.6221 17.4809C82.6621 17.4576 82.7064 17.4428 82.7523 17.4373C82.7982 17.4319 82.8448 17.4359 82.8891 17.4493C82.9956 17.4847 85.2849 18.1769 87.7518 20.2355C90.2186 22.2942 92.8629 25.6307 93.4663 31.4339C93.4712 31.4806 93.4668 31.5278 93.4534 31.5727C93.44 31.6177 93.4178 31.6595 93.388 31.6958C93.3583 31.7321 93.3217 31.7622 93.2803 31.7842C93.239 31.8063 93.1936 31.8199 93.1469 31.8244H93.1114Z" fill="#F8F9FA"/>
<path d="M93.2529 39.5621C93.1588 39.5621 93.0685 39.5247 93.0019 39.4582C92.9353 39.3916 92.8979 39.3013 92.8979 39.2072V34.3268C92.8979 34.2326 92.9353 34.1423 93.0019 34.0758C93.0685 34.0092 93.1588 33.9718 93.2529 33.9718C93.347 33.9718 93.4373 34.0092 93.5039 34.0758C93.5704 34.1423 93.6078 34.2326 93.6078 34.3268V39.2072C93.6078 39.3013 93.5704 39.3916 93.5039 39.4582C93.4373 39.5247 93.347 39.5621 93.2529 39.5621Z" fill="#F8F9FA"/>
<path d="M55.7 29.8722H55.6113C55.5214 29.8435 55.4457 29.7817 55.3996 29.6994C55.3535 29.617 55.3404 29.5202 55.3628 29.4286C57.102 23.4478 61.5211 20.2001 61.6985 20.0581C61.7369 20.0311 61.7802 20.0119 61.8261 20.0017C61.8719 19.9915 61.9193 19.9905 61.9655 19.9988C62.0117 20.007 62.0558 20.0243 62.0953 20.0498C62.1348 20.0752 62.1688 20.1082 62.1954 20.1469C62.2234 20.1841 62.2438 20.2266 62.2553 20.2717C62.2669 20.3169 62.2695 20.3639 62.2629 20.41C62.2563 20.4562 62.2407 20.5006 62.2169 20.5407C62.1932 20.5808 62.1617 20.6158 62.1245 20.6438C62.0712 20.6615 57.7054 23.8915 56.0372 29.6238C56.0204 29.6989 55.977 29.7653 55.915 29.811C55.8531 29.8566 55.7767 29.8784 55.7 29.8722Z" fill="#F8F9FA"/>
<path d="M54.8841 35.7465C54.8019 35.7449 54.7225 35.7162 54.6583 35.6649C54.5941 35.6135 54.5487 35.5424 54.5292 35.4625C54.2984 34.4761 54.2984 33.4497 54.5292 32.4633C54.5396 32.4178 54.5589 32.3749 54.586 32.3369C54.6131 32.2989 54.6474 32.2666 54.6869 32.2419C54.7265 32.2172 54.7705 32.2005 54.8166 32.1928C54.8626 32.1851 54.9096 32.1865 54.9551 32.1971C55.0018 32.2052 55.0462 32.223 55.0856 32.2495C55.1249 32.2759 55.1582 32.3104 55.1833 32.3506C55.2084 32.3908 55.2248 32.4358 55.2314 32.4827C55.2379 32.5297 55.2345 32.5775 55.2213 32.623C55.0263 33.5056 55.0263 34.4202 55.2213 35.3028C55.2345 35.3483 55.2379 35.3961 55.2314 35.4431C55.2248 35.49 55.2084 35.535 55.1833 35.5752C55.1582 35.6154 55.1249 35.6499 55.0856 35.6763C55.0462 35.7028 55.0018 35.7206 54.9551 35.7287L54.8841 35.7465Z" fill="#F8F9FA"/>
<path d="M124.311 86.2546C129.315 120.773 115.65 123.08 107.114 116.46C102.943 113.23 100.068 108.296 99.3229 106.504C99.2889 106.429 99.2712 106.347 99.271 106.265C99.2708 106.182 99.288 106.101 99.3215 106.025C99.355 105.95 99.404 105.882 99.4655 105.827C99.5269 105.772 99.5992 105.731 99.6778 105.705C101.417 105.12 106.475 103.239 108.374 100.594" fill="#F8F9FA"/>
<path d="M114.745 119.779C112.207 119.779 109.474 118.75 106.883 116.744C102.464 113.301 99.6242 108.172 98.9853 106.646C98.8932 106.399 98.8995 106.126 99.003 105.883C99.0561 105.765 99.132 105.659 99.2265 105.57C99.3209 105.482 99.432 105.413 99.5532 105.368C101.097 104.854 106.226 102.972 108.072 100.381C108.128 100.306 108.212 100.256 108.306 100.243C108.399 100.23 108.493 100.254 108.569 100.31C108.607 100.337 108.64 100.371 108.666 100.41C108.691 100.45 108.709 100.494 108.717 100.54C108.725 100.586 108.724 100.634 108.714 100.68C108.704 100.726 108.685 100.769 108.657 100.807C106.741 103.487 101.807 105.368 99.7839 106.043C99.7239 106.075 99.6746 106.125 99.6419 106.185C99.6241 106.242 99.6241 106.304 99.6419 106.362C100.423 108.226 103.333 113.088 107.326 116.176C111.32 119.264 115.472 119.885 118.685 118.022C121.897 116.158 127.292 109.273 123.955 86.2902C123.948 86.2445 123.95 86.1977 123.961 86.1529C123.973 86.108 123.993 86.0659 124.021 86.0293C124.05 85.9927 124.085 85.9623 124.126 85.94C124.166 85.9177 124.211 85.904 124.257 85.8997C124.304 85.8922 124.352 85.894 124.397 85.9052C124.443 85.9163 124.487 85.9366 124.525 85.9647C124.563 85.9928 124.595 86.0282 124.619 86.0689C124.643 86.1095 124.659 86.1546 124.665 86.2014C126.014 95.5364 126.103 103.132 124.896 108.758C123.849 113.656 121.879 116.975 119.039 118.643C117.73 119.386 116.25 119.778 114.745 119.779Z" fill="#212529"/>
<path d="M138.047 119.424H22.9748V120.134H138.047V119.424Z" fill="#212529"/>
<path d="M123.671 87.3727C123.671 87.3727 129.404 75.145 123.671 74.7545C123.671 74.7545 125.57 68.9335 120.406 69.6789C120.406 69.6789 120.353 61.4442 112.242 63.4852C112.242 63.4852 111.426 67.9929 107.362 65.3841C107.362 65.3841 103.741 59.8825 102.907 65.1179C102.747 66.0762 107.379 69.8564 108.196 71.3649C110.361 75.3934 111.869 83.0957 111.355 91.1351C111.142 94.578 110.858 98.9438 110.929 102.6L123.671 87.3727Z" fill="#F8F9FA"/>
<path d="M113.396 63.0237C116.289 61.7637 114.834 68.8093 111.799 71.0986C111.641 71.2176 111.459 71.3 111.266 71.3399C111.073 71.3799 110.873 71.3762 110.681 71.3293C109.953 71.1341 108.746 69.7499 109.51 67.6202" fill="#F8F9FA"/>
<path d="M111.001 71.7199C110.863 71.7208 110.725 71.7029 110.592 71.6666C110.113 71.5424 109.598 71.081 109.279 70.4776C108.96 69.8742 108.782 68.5786 109.173 67.5138C109.18 67.4618 109.199 67.412 109.228 67.3681C109.256 67.3242 109.295 67.2873 109.34 67.26C109.384 67.2327 109.435 67.2157 109.487 67.2102C109.539 67.2048 109.592 67.2109 109.642 67.2284C109.691 67.2458 109.736 67.274 109.774 67.3109C109.811 67.3479 109.84 67.3927 109.858 67.442C109.876 67.4914 109.882 67.5442 109.877 67.5965C109.873 67.6488 109.856 67.6993 109.829 67.7445C109.439 68.8626 109.652 69.6789 109.9 70.1581C110.149 70.6373 110.521 70.9212 110.77 70.9745C110.909 71.0096 111.055 71.0135 111.196 70.9859C111.337 70.9583 111.47 70.8999 111.586 70.8148C113.858 69.0933 115.136 64.692 114.408 63.4675C114.337 63.361 114.177 63.077 113.538 63.3432C113.457 63.3634 113.372 63.3544 113.297 63.3178C113.222 63.2812 113.162 63.2193 113.128 63.143C113.094 63.0667 113.088 62.9809 113.111 62.9007C113.135 62.8205 113.185 62.7509 113.254 62.7043C114.355 62.2252 114.869 62.8286 115.029 63.1125C115.97 64.7275 114.479 69.5192 112.012 71.3827C111.721 71.6039 111.366 71.7225 111.001 71.7199Z" fill="#212529"/>
<path d="M117.549 66.3779C121.808 64.8339 118.188 74.5948 114.248 75.6596C114.248 75.6596 112.26 75.8726 112.314 73.5655" fill="#F8F9FA"/>
<path d="M114.123 76.0146C113.577 76.0299 113.046 75.8399 112.633 75.4822C112.171 75.0562 111.941 74.3996 111.958 73.5655C111.958 73.4714 111.996 73.3811 112.062 73.3145C112.129 73.2479 112.219 73.2105 112.313 73.2105H112.331C112.424 73.2194 112.509 73.2625 112.572 73.3315C112.634 73.4005 112.669 73.4902 112.668 73.5832C112.65 74.2044 112.81 74.6658 113.112 74.9498C113.409 75.199 113.79 75.3259 114.177 75.3047C116.235 74.719 118.33 71.4713 118.951 68.8803C119.199 67.8332 119.146 67.0168 118.809 66.7151C118.471 66.4134 118.028 66.5731 117.655 66.7151C117.566 66.7457 117.468 66.7395 117.383 66.6979C117.298 66.6563 117.233 66.5827 117.203 66.4933C117.172 66.4039 117.178 66.3059 117.22 66.2211C117.261 66.1362 117.335 66.0713 117.424 66.0407C118.223 65.7568 118.844 65.81 119.288 66.1827C119.732 66.5554 119.962 67.6735 119.643 69.04C119.057 71.5246 116.892 75.3047 114.336 75.9968H114.123V76.0146Z" fill="#212529"/>
<path d="M121.506 70.5485C125.535 69.7677 122.748 79.3333 116.732 79.777C116.732 79.777 114.07 79.8657 114.372 77.4344" fill="#F8F9FA"/>
<path d="M116.715 80.1319C116.449 80.1319 115.242 80.0786 114.532 79.2977C114.088 78.8186 113.929 78.1797 114.017 77.3988C114.022 77.3521 114.036 77.3068 114.058 77.2654C114.08 77.224 114.11 77.1874 114.146 77.1577C114.182 77.128 114.224 77.1057 114.269 77.0923C114.314 77.0789 114.361 77.0745 114.408 77.0794C114.502 77.0965 114.586 77.1476 114.645 77.2228C114.704 77.298 114.733 77.3922 114.727 77.4876C114.656 78.0555 114.763 78.4991 115.047 78.8186C115.615 79.4397 116.715 79.422 116.715 79.422C119.572 79.209 121.595 76.7954 122.465 74.79C123.122 73.2637 123.228 71.8262 122.731 71.1873C122.483 70.8856 122.092 70.7969 121.56 70.9034C121.468 70.919 121.374 70.8979 121.298 70.8448C121.221 70.7917 121.169 70.7108 121.152 70.6194C121.136 70.5256 121.156 70.4292 121.209 70.35C121.262 70.2708 121.343 70.2148 121.436 70.1935C122.43 69.9983 122.997 70.3887 123.281 70.7437C123.974 71.5955 123.903 73.2637 123.122 75.0739C122.128 77.3633 119.927 79.9012 116.75 80.1319H116.715Z" fill="#212529"/>
<path d="M111.728 64.9404L102.712 52.9789L99.0742 56.7412L109.261 67.3895C109.346 67.4731 109.451 67.5334 109.566 67.5645C109.681 67.5955 109.802 67.5964 109.918 67.567C110.397 67.425 111.231 66.9991 111.817 65.597C111.86 65.4892 111.874 65.3721 111.858 65.2571C111.843 65.142 111.798 65.0329 111.728 64.9404Z" fill="#F8F9FA"/>
<path d="M109.74 67.9397C109.603 67.9405 109.467 67.9124 109.342 67.8574C109.217 67.8024 109.104 67.7216 109.012 67.6203L98.5945 56.7413L102.747 52.4288L112.011 64.7275C112.119 64.8665 112.189 65.0313 112.214 65.2056C112.239 65.3799 112.218 65.5576 112.153 65.7213C111.497 67.3008 110.521 67.7622 110.006 67.9042C109.92 67.9333 109.83 67.9454 109.74 67.9397ZM99.5706 56.7413L109.527 67.1411C109.564 67.1766 109.609 67.2031 109.658 67.2185C109.708 67.2339 109.76 67.2377 109.811 67.2298C110.219 67.1233 110.946 66.7507 111.497 65.4551C111.515 65.4047 111.521 65.3501 111.511 65.297C111.502 65.244 111.478 65.1944 111.443 65.1534L102.676 53.5113L99.5706 56.7413Z" fill="#212529"/>
<path d="M59.6405 35.0899C57.7416 36.3145 57.1382 37.0421 57.3866 39.296C57.5464 40.6093 58.5757 42.8986 59.6405 43.6795C60.7053 44.4604 61.4862 44.4426 61.9121 44.8508C62.9237 45.8269 62.977 46.874 63.1012 47.9388C63.4206 50.6009 65.8875 52.2691 68.1946 53.6534C71.8682 55.854 76.9971 55.2506 80.0674 52.2691C81.8066 50.5831 83.3151 48.5245 83.954 46.1819C84.7349 43.2891 87.6454 41.0707 87.7164 40.9642C88.4972 39.5977 88.8522 38.5151 88.6747 36.9356C88.444 34.877 85.5335 33.1023 83.8653 31.8777C79.9964 29.0027 77.0326 25.9857 73.4122 22.4185C73.2784 22.2894 73.1183 22.1906 72.9429 22.1289C72.7674 22.0672 72.5808 22.044 72.3956 22.0608C72.2104 22.0776 72.0309 22.1341 71.8695 22.2265C71.7081 22.3188 71.5684 22.4449 71.4601 22.596C68.8867 26.1277 68.6383 29.0027 61.9121 32.907" fill="#F8F9FA"/>
<path d="M73.0391 55.2505H72.9326C67.2535 55.1973 64.4673 51.7544 63.1185 48.8793C62.22 46.9039 61.6907 44.7807 61.5567 42.6146C61.5543 42.5689 61.5613 42.5231 61.5771 42.4801C61.593 42.4371 61.6174 42.3978 61.649 42.3646C61.6806 42.3314 61.7185 42.305 61.7607 42.2869C61.8028 42.2689 61.8481 42.2596 61.8939 42.2597H61.9117C61.9574 42.2573 62.0032 42.2642 62.0462 42.2801C62.0892 42.2959 62.1285 42.3204 62.1617 42.3519C62.1949 42.3835 62.2213 42.4215 62.2394 42.4636C62.2574 42.5057 62.2667 42.5511 62.2666 42.5969C62.4082 44.6703 62.919 46.7017 63.7751 48.5954C65.6031 52.4997 68.6911 54.5052 72.9326 54.5407H73.0568C77.5646 54.5407 80.8478 52.198 82.8 47.5661C84.273 44.0521 84.3795 40.485 84.3972 40.4495C84.3868 40.3972 84.3883 40.3433 84.4015 40.2917C84.4148 40.2401 84.4395 40.1922 84.4738 40.1514C84.5081 40.1107 84.5511 40.0782 84.5997 40.0563C84.6483 40.0345 84.7011 40.0238 84.7544 40.0252C84.8076 40.0266 84.8599 40.0399 84.9073 40.0642C84.9547 40.0885 84.996 40.1232 85.0282 40.1656C85.0604 40.2081 85.0826 40.2573 85.0932 40.3095C85.1037 40.3617 85.1024 40.4156 85.0894 40.4672C84.9651 43.0026 84.413 45.4987 83.4566 47.85C81.4157 52.695 77.8131 55.2505 73.0391 55.2505Z" fill="#212529"/>
<path d="M61.6813 44.8508C60.73 44.8471 59.8065 44.5289 59.0548 43.9457C57.9545 43.0584 57.2801 41.6386 57.0671 39.7219C56.7299 36.6872 57.6173 36.0128 58.4159 35.4094C59.2145 34.806 59.4807 34.593 59.321 32.9425C59.3156 32.8493 59.3454 32.7574 59.4046 32.6851C59.4638 32.6127 59.5479 32.5653 59.6404 32.5521C59.6871 32.5472 59.7342 32.5516 59.7792 32.565C59.8241 32.5785 59.866 32.6007 59.9023 32.6304C59.9386 32.6601 59.9686 32.6967 59.9907 32.7381C60.0128 32.7795 60.0264 32.8248 60.0309 32.8715C60.2261 34.9125 59.4807 35.4804 58.8418 35.9773C58.2029 36.4742 57.493 37.0066 57.777 39.6332C58.3094 44.4781 61.7346 44.1587 61.8766 44.1409C61.9222 44.1334 61.969 44.1354 62.0138 44.1467C62.0587 44.1581 62.1008 44.1785 62.1374 44.2069C62.174 44.2352 62.2044 44.2707 62.2267 44.3113C62.249 44.3518 62.2627 44.3965 62.267 44.4426C62.2719 44.4893 62.2675 44.5365 62.2541 44.5814C62.2406 44.6263 62.2184 44.6682 62.1887 44.7045C62.159 44.7408 62.1224 44.7708 62.081 44.7929C62.0396 44.815 61.9942 44.8286 61.9475 44.8331L61.6813 44.8508Z" fill="#212529"/>
<path d="M66.8457 39.4201C67.277 39.4201 67.6266 38.8878 67.6266 38.2311C67.6266 37.5744 67.277 37.042 66.8457 37.042C66.4144 37.042 66.0648 37.5744 66.0648 38.2311C66.0648 38.8878 66.4144 39.4201 66.8457 39.4201Z" fill="#212529"/>
<path d="M64.8758 35.8353C64.7782 35.8313 64.6845 35.7966 64.6079 35.736C64.5314 35.6754 64.4761 35.5921 64.4499 35.4981C64.4338 35.441 64.4294 35.3812 64.4369 35.3224C64.4444 35.2635 64.4636 35.2068 64.4934 35.1555C64.5232 35.1042 64.5629 35.0594 64.6103 35.0238C64.6577 34.9881 64.7118 34.9623 64.7693 34.9479L68.6914 33.9186C68.7462 33.9025 68.8036 33.8975 68.8603 33.9041C68.917 33.9106 68.9718 33.9285 69.0215 33.9566C69.0712 33.9848 69.1147 34.0226 69.1494 34.0679C69.1842 34.1132 69.2095 34.165 69.2238 34.2203C69.2568 34.3332 69.2435 34.4547 69.1869 34.5578C69.1303 34.661 69.0351 34.7375 68.9221 34.7704L65 35.8175L64.8758 35.8353Z" fill="#212529"/>
<path d="M71.2826 44.8508H71.2649C70.484 44.7798 69.9871 44.5136 69.8096 44.0344C69.4192 43.0228 70.7502 41.5853 71.0341 41.3191C71.0981 41.2516 71.186 41.212 71.279 41.2087C71.3719 41.2054 71.4624 41.2386 71.5311 41.3014C71.5972 41.3707 71.6342 41.4628 71.6342 41.5587C71.6342 41.6545 71.5972 41.7467 71.5311 41.816C71.0164 42.3484 70.3065 43.36 70.484 43.7859C70.6615 44.2119 71.0341 44.1231 71.3004 44.1409C71.3478 44.1406 71.3947 44.1504 71.4381 44.1695C71.4816 44.1886 71.5204 44.2167 71.5523 44.2518C71.5841 44.287 71.6081 44.3285 71.6228 44.3736C71.6375 44.4187 71.6425 44.4664 71.6375 44.5136C71.6291 44.6032 71.5884 44.6866 71.5232 44.7486C71.458 44.8106 71.3725 44.8469 71.2826 44.8508Z" fill="#212529"/>
<path d="M92.4898 58.658C102.673 58.658 110.929 50.4025 110.929 40.2188C110.929 30.0351 102.673 21.7796 92.4898 21.7796C82.3061 21.7796 74.0506 30.0351 74.0506 40.2188C74.0506 50.4025 82.3061 58.658 92.4898 58.658Z" fill="#F8F9FA"/>
<path d="M92.4899 59.0307C82.1256 59.0307 73.6958 50.583 73.6958 40.2188C73.6958 35.2342 75.6759 30.4539 79.2004 26.9293C82.725 23.4047 87.5054 21.4246 92.4899 21.4246C97.4744 21.4246 102.255 23.4047 105.779 26.9293C109.304 30.4539 111.284 35.2342 111.284 40.2188C111.284 50.583 102.854 59.0307 92.4899 59.0307ZM92.4899 22.1345C87.6951 22.1392 83.098 24.046 79.7076 27.4364C76.3172 30.8269 74.4104 35.424 74.4057 40.2188C74.4057 50.1926 82.5161 58.3208 92.4899 58.3208C102.464 58.3208 110.574 50.1926 110.574 40.2188C110.569 35.424 108.663 30.8269 105.272 27.4364C101.882 24.046 97.2847 22.1392 92.4899 22.1345Z" fill="#212529"/>
<path d="M92.4902 55.4813C100.733 55.4813 107.415 48.799 107.415 40.556C107.415 32.313 100.733 25.6307 92.4902 25.6307C84.2472 25.6307 77.5649 32.313 77.5649 40.556C77.5649 48.799 84.2472 55.4813 92.4902 55.4813Z" fill="#F8F9FA"/>
<path d="M92.4899 55.8362C89.4677 55.8362 86.5135 54.94 84.0007 53.261C81.4878 51.582 79.5293 49.1956 78.3728 46.4035C77.2163 43.6114 76.9137 40.539 77.5033 37.575C78.0929 34.6109 79.5482 31.8882 81.6851 29.7512C83.8221 27.6143 86.5448 26.159 89.5089 25.5694C92.4729 24.9798 95.5453 25.2824 98.3374 26.4389C101.129 27.5954 103.516 29.5539 105.195 32.0668C106.874 34.5796 107.77 37.5338 107.77 40.556C107.765 44.6071 106.154 48.491 103.289 51.3556C100.425 54.2201 96.541 55.8315 92.4899 55.8362ZM92.4899 25.9856C89.6081 25.9856 86.7911 26.8402 84.395 28.4412C81.999 30.0422 80.1314 32.3178 79.0286 34.9802C77.9259 37.6425 77.6373 40.5722 78.1995 43.3985C78.7617 46.2249 80.1494 48.8211 82.1871 50.8588C84.2248 52.8965 86.821 54.2842 89.6474 54.8464C92.4737 55.4086 95.4033 55.12 98.0657 54.0172C100.728 52.9144 103.004 51.0469 104.605 48.6508C106.206 46.2548 107.06 43.4377 107.06 40.556C107.056 36.6931 105.519 32.9898 102.787 30.2584C100.056 27.5269 96.3527 25.9903 92.4899 25.9856Z" fill="#212529"/>
<path d="M81.0251 39.4557C81.8974 39.4557 82.6046 38.3751 82.6046 37.0421C82.6046 35.7091 81.8974 34.6285 81.0251 34.6285C80.1527 34.6285 79.4456 35.7091 79.4456 37.0421C79.4456 38.3751 80.1527 39.4557 81.0251 39.4557Z" fill="#212529"/>
<path d="M85.6393 53.8307C85.6393 53.8307 95.9326 41.9402 89.1354 26.0033L85.6393 53.8307Z" fill="#F8F9FA"/>
<path d="M85.6396 54.1856C85.5548 54.1832 85.4734 54.1519 85.4089 54.0969C85.3389 54.0353 85.2959 53.9487 85.2893 53.8557C85.2827 53.7628 85.3129 53.6709 85.3734 53.6C85.3911 53.5645 87.9289 50.6007 89.6149 45.738C91.1589 41.2835 92.277 34.2557 88.8163 26.1453C88.7801 26.0604 88.7784 25.9647 88.8115 25.8786C88.8446 25.7925 88.91 25.7226 88.9938 25.6839C89.0367 25.6632 89.0834 25.6513 89.1311 25.6491C89.1787 25.6469 89.2263 25.6542 89.2711 25.6708C89.3158 25.6874 89.3567 25.7128 89.3914 25.7455C89.4261 25.7782 89.4538 25.8176 89.4729 25.8613C93.0224 34.2024 91.8688 41.4255 90.2716 46.0043C88.5501 50.9734 86.0123 53.9372 85.9058 54.0614C85.8721 54.0991 85.8312 54.1295 85.7854 54.1509C85.7397 54.1722 85.6901 54.1841 85.6396 54.1856Z" fill="#212529"/>
<path d="M49.3286 112.875C49.3286 112.875 49.5948 118.288 49.3286 119.779V112.875Z" fill="#F8F9FA"/>
<path d="M49.3296 120.134H49.2764C49.1836 120.113 49.1025 120.057 49.0497 119.977C48.9969 119.898 48.9764 119.802 48.9924 119.708C49.2409 118.27 48.9924 112.946 48.9747 112.893C48.9723 112.847 48.9792 112.802 48.9951 112.759C49.0109 112.716 49.0354 112.676 49.0669 112.643C49.0985 112.61 49.1365 112.583 49.1786 112.565C49.2207 112.547 49.2661 112.538 49.3119 112.538C49.359 112.533 49.4067 112.538 49.4518 112.553C49.4969 112.568 49.5384 112.592 49.5736 112.623C49.6088 112.655 49.6368 112.694 49.656 112.738C49.6751 112.781 49.6848 112.828 49.6846 112.875C49.7023 113.088 49.9508 118.324 49.6846 119.832C49.6717 119.917 49.6287 119.994 49.5635 120.049C49.4983 120.105 49.4152 120.135 49.3296 120.134Z" fill="#212529"/>
<path d="M70.0222 51.4527C69.33 51.4527 68.7621 50.7606 68.7621 49.9265C68.7621 49.0924 69.33 48.3825 70.0222 48.3825C70.7143 48.3825 71.2822 49.0746 71.2822 49.9265C71.2822 50.7783 70.7143 51.4527 70.0222 51.4527ZM70.0222 49.0924C69.7205 49.0924 69.472 49.4828 69.472 49.9265C69.472 50.3701 69.7205 50.7428 70.0222 50.7428C70.3239 50.7428 70.5723 50.3701 70.5723 49.9265C70.5723 49.4828 70.3239 49.0924 70.0222 49.0924Z" fill="#212529"/>
<path d="M118.862 83.9653C118.577 83.9593 118.293 83.9356 118.01 83.8943C116.466 83.6636 115.49 83.2377 115.1 82.6343C115.022 82.525 114.969 82.4001 114.945 82.2684C114.92 82.1366 114.925 82.001 114.958 81.8711L115.632 82.0664C115.631 82.1088 115.638 82.151 115.653 82.1906C115.669 82.2303 115.692 82.2664 115.721 82.2971C115.899 82.5455 116.431 82.9715 118.099 83.2022L118.845 83.2554C121.986 83.2554 124.435 80.3981 125.038 78.7831C125.185 78.3901 125.215 77.9628 125.124 77.5532C125.032 77.1436 124.824 76.7693 124.524 76.476C124.488 76.4457 124.459 76.4083 124.439 76.3662C124.418 76.3241 124.407 76.2782 124.405 76.2315C124.404 76.1847 124.412 76.1382 124.429 76.0947C124.446 76.0513 124.473 76.0119 124.506 75.9791C124.567 75.9091 124.654 75.8662 124.747 75.8595C124.84 75.8529 124.932 75.8831 125.003 75.9436C125.056 75.9969 126.387 77.2214 125.695 79.0316C125.003 80.8418 122.376 83.9653 118.862 83.9653Z" fill="#212529"/>
<path d="M123.92 86.6629C123.779 86.6692 123.638 86.6386 123.512 86.5741C123.47 86.5534 123.432 86.5245 123.401 86.4891C123.371 86.4537 123.347 86.4125 123.332 86.3679C123.317 86.3233 123.311 86.2763 123.315 86.2294C123.318 86.1825 123.331 86.1368 123.352 86.0949C123.373 86.0525 123.402 86.0148 123.438 85.9843C123.473 85.9538 123.515 85.9311 123.56 85.9177C123.606 85.9044 123.653 85.9006 123.7 85.9067C123.746 85.9127 123.791 85.9285 123.832 85.953C124.008 85.9698 124.186 85.9392 124.346 85.8642C125.145 85.527 126.068 84.6929 126.156 84.4267C126.175 84.3763 126.18 84.3217 126.171 84.2686C126.162 84.2156 126.138 84.166 126.103 84.125L123.973 81.0193C123.947 80.9823 123.928 80.9404 123.918 80.896C123.908 80.8515 123.907 80.8055 123.915 80.7608C123.924 80.716 123.941 80.6733 123.966 80.6354C123.991 80.5975 124.024 80.5651 124.062 80.5401C124.101 80.5131 124.144 80.4939 124.19 80.4837C124.236 80.4735 124.283 80.4725 124.329 80.4807C124.375 80.489 124.42 80.5063 124.459 80.5318C124.498 80.5572 124.533 80.5902 124.559 80.6289L126.689 83.7168C126.781 83.853 126.842 84.0082 126.867 84.171C126.891 84.3338 126.879 84.5 126.831 84.6574C126.636 85.2076 125.5 86.1659 124.612 86.5209C124.393 86.6137 124.158 86.6619 123.92 86.6629Z" fill="#212529"/>
<path d="M123.672 86.6095C123.617 86.6082 123.563 86.5948 123.514 86.5703C123.465 86.5457 123.422 86.5107 123.388 86.4675L121.205 83.2908C121.178 83.2524 121.159 83.209 121.149 83.1632C121.139 83.1174 121.138 83.0701 121.146 83.024C121.155 82.9778 121.172 82.9338 121.197 82.8943C121.222 82.8548 121.255 82.8207 121.294 82.7939C121.332 82.7671 121.375 82.7481 121.421 82.7381C121.467 82.728 121.514 82.7271 121.56 82.7354C121.607 82.7436 121.651 82.7608 121.69 82.7861C121.73 82.8114 121.764 82.8442 121.791 82.8826L123.973 86.0594C124 86.0988 124.018 86.1431 124.027 86.1896C124.035 86.2361 124.035 86.284 124.025 86.3303C124.015 86.3766 123.996 86.4204 123.969 86.4592C123.942 86.4981 123.907 86.5311 123.867 86.5563C123.808 86.5926 123.741 86.6111 123.672 86.6095Z" fill="#212529"/>
<path d="M92.5966 128.422C96.8701 128.422 100.334 124.997 100.334 120.773C100.334 116.548 96.8701 113.124 92.5966 113.124C88.3232 113.124 84.8589 116.548 84.8589 120.773C84.8589 124.997 88.3232 128.422 92.5966 128.422Z" fill="#F8F9FA"/>
<path d="M92.6854 128.777H92.1175L88.852 128.386L91.4786 128.067V127.978L91.7803 128.013C93.5415 127.792 95.1605 126.933 96.3313 125.599C97.502 124.265 98.1432 122.548 98.1337 120.773C98.1337 116.975 95.6491 114.011 92.0997 113.585L89.1892 113.248L92.0997 112.893L92.2417 112.84C92.3779 112.789 92.5225 112.765 92.6676 112.769C93.7981 112.766 94.9163 113.003 95.9486 113.464C96.9808 113.925 97.9038 114.599 98.6566 115.443C99.4094 116.286 99.975 117.279 100.316 118.357C100.657 119.435 100.766 120.573 100.636 121.696C100.402 123.642 99.4652 125.437 98.0009 126.741C96.5366 128.045 94.6462 128.769 92.6854 128.777ZM95.2587 113.958C97.4593 115.324 98.8436 117.809 98.8436 120.773C98.8462 122.192 98.4732 123.586 97.7625 124.814C97.0519 126.042 96.0288 127.06 94.7973 127.765C95.6809 127.487 96.5053 127.048 97.2286 126.469C97.9787 125.879 98.6036 125.144 99.0667 124.31C99.5299 123.475 99.8221 122.556 99.9262 121.607C100.047 120.583 99.9486 119.545 99.6364 118.563C99.3242 117.58 98.8059 116.676 98.116 115.91C97.3295 115.045 96.3508 114.376 95.2587 113.958Z" fill="#212529"/>
<path d="M92.2241 128.741H91.7981C87.7695 128.741 84.5041 125.156 84.5041 120.773C84.5041 116.389 87.7163 112.769 91.6739 112.769C91.9646 112.769 92.255 112.787 92.5435 112.822C96.1284 113.319 98.8437 116.726 98.8437 120.773C98.8437 124.819 96.1284 128.244 92.5435 128.723L92.2241 128.741ZM91.6739 113.479C88.1067 113.479 85.214 116.762 85.214 120.773C85.214 124.784 88.1777 128.031 91.7981 128.031H92.0643C92.1888 128.043 92.3142 128.037 92.437 128.014C95.6847 127.588 98.1338 124.464 98.1338 120.773C98.1338 117.081 95.6847 113.976 92.437 113.532C92.1842 113.497 91.9292 113.479 91.6739 113.479Z" fill="#212529"/>
<path d="M91.6735 126.647C88.763 126.647 86.4026 124.02 86.4026 120.773C86.4026 117.525 88.763 114.916 91.6735 114.916L92.3124 114.952C94.939 115.307 96.9267 117.809 96.9267 120.773C96.9267 123.736 94.939 126.239 92.3124 126.594C92.1013 126.629 91.8876 126.647 91.6735 126.647ZM91.6735 115.626C89.1534 115.626 87.1125 117.933 87.1125 120.773C87.1125 123.612 89.1534 125.937 91.6735 125.937L92.2059 125.902C94.4953 125.582 96.2168 123.381 96.2168 120.773C96.2168 118.164 94.4953 115.963 92.2059 115.662C92.0301 115.632 91.8517 115.62 91.6735 115.626Z" fill="#212529"/>
<path d="M99.0924 117.17H97.4952C97.4011 117.17 97.3108 117.133 97.2442 117.066C97.1776 117 97.1403 116.909 97.1403 116.815C97.1403 116.721 97.1776 116.631 97.2442 116.564C97.3108 116.498 97.4011 116.46 97.4952 116.46H99.0924C99.1866 116.46 99.2768 116.498 99.3434 116.564C99.41 116.631 99.4474 116.721 99.4474 116.815C99.4474 116.909 99.41 117 99.3434 117.066C99.2768 117.133 99.1866 117.17 99.0924 117.17Z" fill="#212529"/>
<path d="M99.7134 118.98H98.2049C98.1107 118.98 98.0204 118.943 97.9539 118.876C97.8873 118.81 97.8499 118.719 97.8499 118.625C97.8499 118.531 97.8873 118.441 97.9539 118.374C98.0204 118.308 98.1107 118.27 98.2049 118.27H99.7134C99.8075 118.27 99.8978 118.308 99.9643 118.374C100.031 118.441 100.068 118.531 100.068 118.625C100.068 118.719 100.031 118.81 99.9643 118.876C99.8978 118.943 99.8075 118.98 99.7134 118.98Z" fill="#212529"/>
<path d="M100.316 121.429H98.4885C98.3944 121.429 98.3041 121.392 98.2376 121.325C98.171 121.259 98.1336 121.169 98.1336 121.074C98.1336 120.98 98.171 120.89 98.2376 120.823C98.3041 120.757 98.3944 120.719 98.4885 120.719H100.316C100.411 120.719 100.501 120.757 100.567 120.823C100.634 120.89 100.671 120.98 100.671 121.074C100.671 121.169 100.634 121.259 100.567 121.325C100.501 121.392 100.411 121.429 100.316 121.429Z" fill="#212529"/>
<path d="M99.6064 123.985H97.9914C97.8973 123.985 97.807 123.948 97.7405 123.881C97.6739 123.814 97.6365 123.724 97.6365 123.63C97.6365 123.536 97.6739 123.446 97.7405 123.379C97.807 123.313 97.8973 123.275 97.9914 123.275H99.6064C99.7006 123.275 99.7908 123.313 99.8574 123.379C99.924 123.446 99.9614 123.536 99.9614 123.63C99.9614 123.724 99.924 123.814 99.8574 123.881C99.7908 123.948 99.7006 123.985 99.6064 123.985Z" fill="#212529"/>
<path d="M97.9915 126.612H96.4298C96.3357 126.612 96.2454 126.574 96.1788 126.508C96.1122 126.441 96.0749 126.351 96.0749 126.257C96.0749 126.162 96.1122 126.072 96.1788 126.006C96.2454 125.939 96.3357 125.902 96.4298 125.902H97.9915C98.0857 125.902 98.176 125.939 98.2425 126.006C98.3091 126.072 98.3465 126.162 98.3465 126.257C98.3465 126.351 98.3091 126.441 98.2425 126.508C98.176 126.574 98.0857 126.612 97.9915 126.612Z" fill="#212529"/>
<path d="M92.2415 124.375C91.7026 124.384 91.1746 124.223 90.733 123.914C89.8811 123.275 89.4552 121.997 89.4552 120.134C89.4729 118.537 89.8456 117.614 90.591 117.294C91.7446 116.797 93.2176 118.128 93.3773 118.27C93.4448 118.334 93.4844 118.422 93.4877 118.515C93.491 118.608 93.4578 118.699 93.395 118.767C93.3647 118.803 93.3273 118.832 93.2852 118.852C93.2431 118.872 93.1972 118.884 93.1505 118.886C93.1038 118.887 93.0572 118.879 93.0137 118.862C92.9703 118.845 92.9309 118.818 92.8981 118.785C92.5609 118.483 91.4961 117.685 90.875 117.951C90.2538 118.217 90.1828 118.909 90.1651 120.134C90.1651 121.767 90.4845 122.849 91.1589 123.328C91.8333 123.807 92.8804 123.63 93.5725 123.417C93.6167 123.401 93.6638 123.394 93.7108 123.397C93.7579 123.399 93.8038 123.412 93.8456 123.434C93.8874 123.456 93.9241 123.486 93.9535 123.523C93.9829 123.56 94.0043 123.602 94.0162 123.648C94.0326 123.692 94.0396 123.739 94.0367 123.786C94.0338 123.833 94.021 123.879 93.9993 123.921C93.9775 123.963 93.9473 123.999 93.9105 124.029C93.8736 124.058 93.8311 124.079 93.7855 124.091C93.289 124.267 92.7679 124.363 92.2415 124.375Z" fill="#212529"/>
<path d="M63.9353 108.279C63.9353 108.279 47.5015 110.746 48.0339 113.674C48.5663 116.602 49.7199 118.519 48.1582 121.749C47.3773 123.364 45.6736 125.44 45.2121 127.801C44.7507 130.161 45.7623 132.947 48.0339 134.828C52.5949 138.609 52.4707 141.555 73.6429 134.828C73.6429 134.828 81.1677 132.912 77.9377 126.665C74.7078 120.418 73.2525 123.311 76.163 114.898C76.163 114.898 77.4941 111.42 73.3058 111.988C73.3058 111.988 69.9693 112.13 68.9755 110.55C67.9816 108.971 67.2717 106.575 63.9353 108.279Z" fill="#F8F9FA"/>
<path d="M53.5355 124.446C53.5355 124.446 56.3041 117.756 58.3805 117.17C60.4569 116.584 73.288 112.893 74.1044 113.816C74.9208 114.739 73.7495 120.861 72.028 121.216C70.3065 121.571 58.5047 125.263 59.3211 126.186C60.1375 127.108 72.3652 123.878 73.5187 124.571C74.6723 125.263 77.7425 129.078 74.3706 133.107C70.9987 137.136 55.2748 139.993 53.8905 138.839C52.5062 137.686 46.7207 131.261 47.1821 129.309C47.6435 127.357 46.5964 125.174 48.6906 126.132C50.7848 127.091 52.2933 127.126 53.5355 124.446Z" fill="#212529"/>
<path d="M56.0732 139.389C53.9081 139.389 51.8672 139.052 50.7491 137.987C46.5076 133.977 43.1711 130.818 45.4782 125.99C47.6434 121.447 48.8324 119.335 48.8502 119.3C48.8722 119.259 48.9024 119.223 48.939 119.194C48.9755 119.165 49.0176 119.145 49.0626 119.133C49.1076 119.121 49.1545 119.119 49.2004 119.126C49.2463 119.134 49.2902 119.15 49.3293 119.175C49.4114 119.22 49.4724 119.296 49.499 119.386C49.5256 119.476 49.5156 119.572 49.4713 119.655C49.4536 119.672 48.2823 121.784 46.1171 126.292C43.952 130.8 47.0577 133.515 51.246 137.473C52.6658 138.821 56.5169 139.052 61.7878 138.076C69.0818 136.745 76.9438 133.533 77.9376 131.456C79.2864 128.706 77.352 126.15 75.7902 124.109C75.3616 123.571 74.9646 123.008 74.6012 122.423C73.909 121.234 74.5657 119.087 75.2046 116.993C75.7725 115.182 76.4114 113.106 75.7015 112.609C74.3172 111.615 65.8696 113.496 61.8055 114.402L59.7291 114.845C56.1265 115.608 52.8433 121.784 52.8078 121.838C52.7926 121.887 52.7668 121.933 52.732 121.972C52.6972 122.01 52.6544 122.041 52.6065 122.061C52.5586 122.081 52.5069 122.091 52.4549 122.089C52.403 122.087 52.3521 122.074 52.3059 122.05C52.2597 122.026 52.2192 121.992 52.1874 121.951C52.1556 121.91 52.1333 121.863 52.1219 121.812C52.1105 121.761 52.1104 121.709 52.1216 121.658C52.1328 121.607 52.155 121.559 52.1866 121.518C52.3286 121.252 55.6473 114.987 59.5872 114.153L61.6458 113.709C68.1412 112.254 74.6012 110.941 76.1097 112.023C77.2277 112.822 76.5711 114.952 75.879 117.206C75.3111 119.051 74.6722 121.145 75.2223 122.068C75.566 122.63 75.9454 123.17 76.3581 123.683C77.9376 125.76 80.1028 128.617 78.5765 131.758C77.3342 134.331 68.7979 137.526 61.912 138.786C60.3325 139.07 58.1496 139.389 56.0732 139.389Z" fill="#212529"/>
<path d="M50.2522 122.494C50.182 122.492 50.1137 122.472 50.0544 122.434C49.995 122.397 49.9469 122.344 49.915 122.281C49.5778 121.429 46.5963 113.993 48.9567 112.378C51.317 110.763 63.2608 108.208 64.0594 108.527C64.1041 108.543 64.1451 108.568 64.1801 108.6C64.2151 108.632 64.2433 108.67 64.2632 108.713C64.283 108.756 64.294 108.803 64.2956 108.85C64.2972 108.897 64.2893 108.944 64.2724 108.989C64.2317 109.068 64.1663 109.131 64.0863 109.17C64.0062 109.208 63.9158 109.219 63.8287 109.202C63.0123 109.113 51.4767 111.491 49.3648 112.964C47.9451 113.94 49.3471 119.016 50.5716 121.997C50.5921 122.039 50.6037 122.084 50.6057 122.131C50.6078 122.177 50.6002 122.223 50.5836 122.267C50.5669 122.31 50.5415 122.349 50.5089 122.382C50.4763 122.416 50.4373 122.441 50.3942 122.459L50.2522 122.494Z" fill="#212529"/>
<path d="M60.4565 107.942C59.2142 107.942 57.9364 107.64 57.1733 106.646C57.1168 106.571 57.0926 106.476 57.1059 106.383C57.1192 106.29 57.169 106.206 57.2443 106.149C57.2806 106.119 57.3229 106.096 57.3684 106.083C57.4139 106.07 57.4617 106.067 57.5086 106.074C57.5555 106.08 57.6004 106.097 57.6405 106.122C57.6806 106.147 57.7149 106.181 57.7412 106.22C59.2674 108.208 63.7752 106.646 63.8107 106.628C63.8549 106.611 63.9021 106.603 63.9494 106.605C63.9968 106.607 64.0433 106.618 64.0863 106.637C64.1293 106.657 64.1679 106.686 64.1998 106.721C64.2317 106.756 64.2563 106.797 64.2721 106.841C64.3016 106.931 64.296 107.028 64.2565 107.114C64.217 107.199 64.1464 107.267 64.0591 107.303C63.9349 107.338 62.2312 107.942 60.4565 107.942Z" fill="#212529"/>
<path d="M58.203 114.029C58.1173 114.032 58.0333 114.005 57.9665 113.951C57.8997 113.897 57.8545 113.821 57.8394 113.737C57.8242 113.653 57.8401 113.566 57.8841 113.492C57.9281 113.418 57.9973 113.363 58.0788 113.337C59.8712 112.68 64.166 111.189 65.0711 111.668H65.1243C65.4083 111.544 65.7632 110.621 65.9407 109.823C65.9619 109.735 66.016 109.658 66.0919 109.609C66.1678 109.559 66.2597 109.54 66.3489 109.557C66.4417 109.578 66.5228 109.634 66.5756 109.713C66.6284 109.792 66.6489 109.889 66.6328 109.983C66.5619 110.302 66.1714 111.97 65.426 112.307C65.3183 112.362 65.1986 112.389 65.0777 112.386C64.9569 112.383 64.8387 112.35 64.7339 112.29C64.2547 112.077 61.0248 113.017 58.3095 114.011L58.203 114.029Z" fill="#212529"/>
<path d="M50.7134 125.831C51.7328 125.831 52.5591 125.004 52.5591 123.985C52.5591 122.966 51.7328 122.139 50.7134 122.139C49.6941 122.139 48.8677 122.966 48.8677 123.985C48.8677 125.004 49.6941 125.831 50.7134 125.831Z" fill="#212529"/>
<path d="M56.8011 107.001C57.8204 107.001 58.6468 106.175 58.6468 105.155C58.6468 104.136 57.8204 103.31 56.8011 103.31C55.7817 103.31 54.9554 104.136 54.9554 105.155C54.9554 106.175 55.7817 107.001 56.8011 107.001Z" fill="#212529"/>
<path d="M66.2773 110.124C67.2967 110.124 68.123 109.298 68.123 108.279C68.123 107.259 67.2967 106.433 66.2773 106.433C65.258 106.433 64.4316 107.259 64.4316 108.279C64.4316 109.298 65.258 110.124 66.2773 110.124Z" fill="#212529"/>
<path d="M63.0295 142.211L62.6568 141.785C62.3565 141.352 62.1453 140.863 62.0356 140.348C61.6275 138.378 62.6568 136 64.8042 134.456C66.9516 132.912 69.9331 132.592 71.6546 133.87C71.9537 134.095 72.2169 134.365 72.4354 134.669C72.5507 134.815 72.6461 134.976 72.7194 135.148C73.802 137.224 72.7904 140.17 70.3058 141.998C67.8212 143.826 64.68 143.862 63.0295 142.211Z" fill="#F8F9FA"/>
<path d="M66.2065 143.755C64.8755 143.755 63.651 143.329 62.7814 142.46C62.636 142.314 62.4997 142.16 62.3732 141.998C62.0864 141.587 61.8705 141.132 61.7343 140.649C61.7122 140.564 61.7174 140.473 61.7492 140.39C61.781 140.308 61.8378 140.237 61.9117 140.188C61.9823 140.133 62.0682 140.102 62.1573 140.099C62.2465 140.096 62.3344 140.121 62.4087 140.17C64.0591 141.253 66.6325 140.987 68.6734 139.496C70.7143 138.005 71.7081 135.822 71.2999 133.941L71.1047 133.036L71.8678 133.586C72.195 133.83 72.4823 134.124 72.7197 134.456C72.8391 134.625 72.9459 134.803 73.0392 134.988C74.2105 137.242 73.1101 140.383 70.5013 142.282C69.2589 143.21 67.7569 143.725 66.2065 143.755ZM62.6749 141.129C62.7636 141.271 62.8523 141.43 62.9588 141.572C63.0555 141.71 63.1623 141.841 63.2783 141.963C64.84 143.507 67.7683 143.4 70.0931 141.714C72.418 140.011 73.4118 137.26 72.418 135.308C72.3293 135.166 72.2583 135.024 72.1518 134.864L72.0986 134.811C72.0808 136.692 70.9628 138.715 69.0993 140.064C67.2359 141.413 64.5383 141.927 62.6749 141.129Z" fill="#212529"/>
<path d="M64.7869 141.555C63.7247 141.579 62.6837 141.255 61.8232 140.632L61.7167 140.543L61.6812 140.419C61.2375 138.271 62.4088 135.751 64.5917 134.154C66.7746 132.557 69.9691 132.184 71.868 133.586L71.9745 133.675V133.799C72.4359 135.946 71.2646 138.467 69.0817 140.064C67.7507 141.04 66.2067 141.555 64.7869 141.555ZM62.3556 140.135C64.006 141.271 66.5794 141.022 68.6735 139.496C70.608 138.094 71.655 135.929 71.3356 134.083C69.6851 132.947 67.1118 133.213 64.9999 134.74C62.888 136.266 62.0361 138.289 62.3556 140.135Z" fill="#212529"/>
<path d="M71.7969 139.23C71.7289 139.228 71.6626 139.208 71.6059 139.17C71.5493 139.132 71.5047 139.079 71.4775 139.017L70.7321 137.455C70.6921 137.368 70.6883 137.268 70.7216 137.179C70.7549 137.089 70.8225 137.016 70.9096 136.976C70.9966 136.936 71.096 136.932 71.1859 136.965C71.2758 136.999 71.3487 137.066 71.3887 137.153L72.1164 138.715C72.1534 138.802 72.1557 138.901 72.1227 138.99C72.0897 139.079 72.024 139.152 71.9389 139.194L71.7969 139.23Z" fill="#212529"/>
<path d="M70.0403 140.738C69.9772 140.735 69.916 140.716 69.8629 140.682C69.8099 140.647 69.767 140.599 69.7386 140.543L69.1529 139.496C69.1282 139.454 69.1122 139.408 69.1059 139.36C69.0997 139.312 69.1033 139.263 69.1166 139.217C69.1299 139.17 69.1526 139.127 69.1833 139.089C69.2139 139.052 69.2519 139.021 69.2949 138.999C69.3782 138.959 69.4733 138.951 69.5618 138.978C69.6504 139.004 69.726 139.062 69.7741 139.141L70.3597 140.206C70.404 140.288 70.414 140.385 70.3874 140.475C70.3608 140.564 70.2998 140.64 70.2178 140.685C70.1657 140.721 70.1036 140.739 70.0403 140.738Z" fill="#212529"/>
<path d="M66.9341 142.619C66.8676 142.622 66.8017 142.605 66.7448 142.57C66.688 142.535 66.6427 142.485 66.6147 142.424L65.9581 141.164C65.9157 141.079 65.9087 140.981 65.9387 140.891C65.9686 140.802 66.0331 140.727 66.1178 140.685C66.2025 140.643 66.3006 140.636 66.3904 140.666C66.4803 140.695 66.5546 140.76 66.597 140.845L67.2358 142.105C67.2801 142.187 67.2901 142.284 67.2635 142.373C67.2369 142.463 67.1759 142.539 67.0939 142.584L66.9341 142.619Z" fill="#212529"/>
<path d="M64.0772 140.064C63.7933 140.064 63.2964 139.939 63.1189 139.514C62.9414 139.088 63.4206 137.81 64.9646 136.284C66.5086 134.757 67.8041 134.03 68.8334 134.118C69.0299 134.126 69.2226 134.175 69.3996 134.26C69.5767 134.346 69.7343 134.467 69.8628 134.615C69.913 134.694 69.9318 134.789 69.9153 134.881C69.8989 134.973 69.8485 135.056 69.774 135.112C69.7 135.163 69.6094 135.184 69.5205 135.171C69.4315 135.158 69.3509 135.112 69.2949 135.041C69.1464 134.901 68.9489 134.825 68.7447 134.828C68.2833 134.793 67.254 135.024 65.4615 136.781C63.669 138.537 63.74 139.176 63.7755 139.23C63.811 139.283 64.024 139.354 64.0772 139.354H64.095C64.1849 139.358 64.2703 139.394 64.3356 139.456C64.4008 139.518 64.4414 139.601 64.4499 139.691C64.446 139.786 64.4078 139.876 64.3425 139.944C64.2773 140.013 64.1893 140.055 64.095 140.064H64.0772Z" fill="#212529"/>
<path d="M120.477 141.058C120.483 140.791 120.471 140.524 120.442 140.259C120.37 139.51 120.127 138.787 119.732 138.147C118.294 135.698 114.922 134.19 111.195 134.598C107.167 135.024 104.025 137.561 103.44 140.543C103.342 141.064 103.324 141.596 103.387 142.122C103.407 142.387 103.454 142.649 103.529 142.903C104.398 146.116 108.267 148.263 112.633 147.784C116.999 147.305 120.317 144.394 120.477 141.058Z" fill="#F8F9FA"/>
<path d="M111.426 148.21C107.451 148.21 104.026 146.098 103.191 142.992C103.118 142.718 103.064 142.44 103.032 142.158C102.973 141.656 102.985 141.148 103.067 140.649C103.081 140.565 103.121 140.487 103.181 140.426C103.242 140.366 103.32 140.326 103.404 140.312C103.485 140.295 103.569 140.303 103.645 140.335C103.721 140.367 103.786 140.421 103.83 140.49C105.286 142.815 108.533 144.128 111.959 143.755C115.703 143.347 118.756 141.058 119.377 138.183C119.39 138.103 119.428 138.029 119.486 137.972C119.543 137.915 119.616 137.877 119.696 137.863C119.776 137.854 119.856 137.868 119.928 137.902C120.001 137.937 120.062 137.991 120.104 138.058C120.482 138.724 120.718 139.462 120.797 140.223C120.826 140.506 120.838 140.791 120.832 141.075C120.655 144.625 117.158 147.642 112.668 148.139C112.26 148.174 111.834 148.21 111.426 148.21ZM103.706 141.537C103.706 141.714 103.706 141.892 103.724 142.069C103.742 142.247 103.813 142.584 103.866 142.815C104.7 145.903 108.445 147.89 112.597 147.429C116.732 146.985 119.962 144.234 120.122 141.04C120.127 140.791 120.115 140.542 120.087 140.294C120.051 139.9 119.961 139.512 119.82 139.141C118.791 141.927 115.721 144.057 112.029 144.447C108.693 144.82 105.445 143.666 103.706 141.537Z" fill="#212529"/>
<path d="M110.805 144.518C107.504 144.518 104.523 143.081 103.139 140.72L103.068 140.614L103.103 140.472C103.724 137.26 107.043 134.686 111.16 134.243C114.923 133.835 118.49 135.325 120.052 137.97L120.105 138.076V138.218C119.484 141.448 116.165 144.004 112.048 144.447C111.636 144.498 111.221 144.522 110.805 144.518ZM103.831 140.49C105.268 142.815 108.516 144.128 111.959 143.755C115.704 143.347 118.738 141.075 119.36 138.218C117.922 135.876 114.674 134.58 111.231 134.953C107.487 135.361 104.452 137.615 103.831 140.49Z" fill="#212529"/>
<path d="M107.717 147.216C107.631 147.217 107.548 147.187 107.483 147.131C107.418 147.076 107.375 146.999 107.362 146.914L107.007 143.631C106.999 143.585 107.001 143.539 107.013 143.494C107.024 143.449 107.044 143.407 107.073 143.37C107.101 143.333 107.137 143.303 107.177 143.281C107.218 143.258 107.262 143.245 107.308 143.24C107.355 143.236 107.402 143.24 107.447 143.253C107.492 143.267 107.534 143.289 107.57 143.319C107.607 143.348 107.637 143.385 107.659 143.426C107.681 143.468 107.694 143.513 107.699 143.56L108.072 146.825C108.077 146.872 108.072 146.919 108.059 146.964C108.045 147.009 108.023 147.051 107.993 147.087C107.964 147.124 107.927 147.154 107.886 147.176C107.844 147.198 107.799 147.211 107.752 147.216H107.717Z" fill="#212529"/>
<path d="M111.355 147.855C111.267 147.855 111.182 147.823 111.116 147.764C111.05 147.705 111.009 147.623 111 147.535L110.592 144.217C110.586 144.121 110.615 144.027 110.674 143.952C110.733 143.877 110.818 143.826 110.911 143.808C110.958 143.803 111.005 143.808 111.05 143.821C111.095 143.835 111.137 143.857 111.173 143.887C111.21 143.916 111.24 143.953 111.262 143.994C111.284 144.036 111.297 144.081 111.302 144.128L111.71 147.464C111.715 147.511 111.711 147.558 111.697 147.603C111.684 147.648 111.662 147.69 111.632 147.726C111.602 147.762 111.565 147.792 111.524 147.815C111.483 147.837 111.437 147.85 111.391 147.855H111.355Z" fill="#212529"/>
<path d="M116.608 146.896C116.525 146.898 116.444 146.871 116.379 146.819C116.314 146.767 116.27 146.694 116.253 146.612L115.561 142.974C115.545 142.88 115.565 142.784 115.618 142.705C115.671 142.626 115.752 142.57 115.845 142.548C115.936 142.533 116.031 142.554 116.107 142.607C116.183 142.66 116.236 142.741 116.253 142.832L116.963 146.488C116.978 146.58 116.957 146.674 116.904 146.75C116.851 146.827 116.77 146.879 116.679 146.896H116.608Z" fill="#212529"/>
<path d="M106.546 139.904C106.457 139.904 106.372 139.872 106.306 139.813C106.241 139.754 106.2 139.672 106.191 139.585C106.173 139.514 106.12 138.875 106.741 138.218C107.717 137.171 109.74 136.692 112.775 136.834C115.81 136.976 117.336 137.455 117.655 138.36C117.868 138.928 117.46 139.478 117.194 139.709C117.122 139.757 117.035 139.777 116.949 139.766C116.863 139.754 116.784 139.712 116.728 139.647C116.671 139.581 116.64 139.497 116.641 139.411C116.642 139.324 116.674 139.241 116.732 139.176C116.732 139.176 117.087 138.857 116.981 138.591C116.874 138.324 116.395 137.686 112.739 137.544C109.083 137.402 107.859 138.076 107.291 138.679C106.723 139.283 106.901 139.496 106.901 139.514C106.906 139.607 106.876 139.699 106.817 139.771C106.758 139.843 106.674 139.891 106.581 139.904H106.546Z" fill="#212529"/>
<path d="M75.2932 80.6999C73.7492 80.6999 72.8973 79.6706 72.5069 78.9607C72.0809 79.4576 71.2113 80.061 69.5609 79.8835C67.2537 79.6173 66.7568 77.5587 66.6681 76.5293C66.0114 76.7955 64.6982 77.2392 63.5978 76.3519C62.7637 75.6775 62.462 74.6481 62.7637 73.4946C61.8409 73.6011 60.2082 73.3881 59.2143 72.3055C58.2205 71.223 58.1672 70.1936 58.5399 68.6141C57.6526 68.7916 56.641 68.8094 56.2151 68.2414C55.7891 67.6735 56.0021 67.1944 56.499 66.3958L57.1024 66.7684C56.641 67.5138 56.7475 67.7623 56.783 67.8155C56.8185 67.8688 57.5816 68.1172 58.6997 67.851C58.785 67.8337 58.8734 67.8375 58.9569 67.8623C59.0405 67.887 59.1167 67.9319 59.1788 67.993C59.237 68.0603 59.2786 68.1403 59.3001 68.2266C59.3217 68.313 59.3227 68.4031 59.3031 68.4899C58.8949 69.9629 59.0546 71.081 59.729 71.8264C60.4034 72.5717 62.1781 72.8912 62.7992 72.7847C62.901 72.7589 63.008 72.7618 63.1083 72.7931C63.2085 72.8244 63.2981 72.883 63.3671 72.9622C63.4355 73.0414 63.4827 73.1367 63.5045 73.239C63.5262 73.3414 63.5217 73.4476 63.4914 73.5478C63.2961 74.2045 63.2252 75.1273 64.0415 75.8017C64.8579 76.4761 65.905 76.1034 66.6148 75.7662L66.6858 75.7307C66.7564 75.697 66.8345 75.6826 66.9124 75.6888C66.9904 75.695 67.0652 75.7217 67.1295 75.7662C67.1952 75.8093 67.2502 75.867 67.2902 75.9346C67.3302 76.0023 67.3541 76.0783 67.3602 76.1566C67.378 76.7955 67.5909 78.9429 69.6319 79.1736C71.2291 79.3511 71.8857 78.6945 72.1342 78.2863C72.1781 78.2093 72.2434 78.1465 72.3221 78.1056C72.4007 78.0647 72.4896 78.0473 72.5779 78.0556C72.662 78.0564 72.7439 78.0822 72.8134 78.1296C72.8829 78.1769 72.9368 78.2438 72.9683 78.3218C73.2168 78.8542 73.9266 80.0787 75.4529 79.99C76.9791 79.9013 77.2986 79.0317 77.4406 78.4993C77.4588 78.4168 77.5003 78.3412 77.56 78.2815C77.6197 78.2218 77.6953 78.1803 77.7778 78.1621C77.8631 78.1447 77.9515 78.1486 78.035 78.1733C78.1186 78.1981 78.1948 78.243 78.2569 78.304C78.7716 78.8897 80.1559 80.1497 81.8241 79.1736C83.4923 78.1976 83.1019 77.3634 82.7469 76.6713C82.705 76.5824 82.6894 76.4833 82.702 76.3858C82.7145 76.2883 82.7548 76.1965 82.8179 76.1211C82.8868 76.0537 82.9738 76.0077 83.0683 75.9888C83.1628 75.9699 83.2608 75.9789 83.3503 76.0147C84.1667 76.3341 86.0479 76.6358 86.5625 76.0324C87.0772 75.429 86.3851 73.8673 86.1189 73.4413C86.0783 73.3689 86.0541 73.2885 86.048 73.2057C86.0418 73.1229 86.0539 73.0398 86.0834 72.9622C86.1176 72.8862 86.1691 72.8194 86.2338 72.767C86.2986 72.7146 86.3747 72.6781 86.4561 72.6605C86.9707 72.554 88.6567 72.1103 89.2424 70.9213C89.5618 70.2469 89.4908 69.4128 89.0294 68.4544C88.9804 68.3591 88.9594 68.2518 88.9688 68.145C88.9783 68.0382 89.0177 67.9363 89.0826 67.851C89.1503 67.764 89.2412 67.6978 89.3448 67.6602C89.4484 67.6225 89.5605 67.6148 89.6683 67.638C90.3427 67.7623 91.9577 67.9752 92.1351 67.0524L92.8273 67.1944C92.6143 68.2414 91.514 68.6674 89.7748 68.3657C90.2362 69.4482 90.2717 70.4066 89.8813 71.223C89.2424 72.5185 87.6984 73.0864 86.8643 73.2994C87.2902 74.0802 87.9291 75.5532 87.1127 76.4938C86.2963 77.4344 84.5216 77.0972 83.5633 76.831C83.794 77.5764 83.8295 78.8364 82.179 79.7948C80.5285 80.7531 78.7183 79.7593 77.9907 79.0672C77.7245 79.7061 77.0679 80.6112 75.4884 80.6999H75.2932Z" fill="#212529"/>
<path d="M51.5831 61.9589C50.7472 61.9396 49.9271 61.727 49.1872 61.3377L49.1162 61.3022C49.043 61.2763 48.9797 61.2282 48.9351 61.1646C48.8906 61.1009 48.867 61.025 48.8678 60.9473C48.8678 60.8531 48.9051 60.7629 48.9717 60.6963C49.0383 60.6297 49.1286 60.5923 49.2227 60.5923C49.3308 60.6009 49.4348 60.6376 49.5244 60.6988C51.8315 61.8879 53.9612 61.1248 55.6826 58.4804C55.7079 58.4404 55.7408 58.4057 55.7797 58.3786C55.8185 58.3515 55.8623 58.3324 55.9086 58.3225C55.9549 58.3125 56.0028 58.312 56.0493 58.3208C56.0958 58.3297 56.1401 58.3477 56.1795 58.374C56.2176 58.3989 56.2503 58.4313 56.2755 58.4693C56.3007 58.5072 56.318 58.5498 56.3263 58.5946C56.3346 58.6394 56.3337 58.6854 56.3237 58.7298C56.3138 58.7742 56.2949 58.8162 56.2683 58.8531C54.955 60.9118 53.34 61.9589 51.5831 61.9589Z" fill="#F8F9FA"/>
<path d="M109.829 104.658H109.776C109.683 104.641 109.601 104.589 109.545 104.514C109.489 104.438 109.464 104.344 109.474 104.25C109.527 104.002 113.219 78.304 107.646 71.2229C107.611 71.1874 104.807 67.6025 103.351 66.5554C102.322 65.81 102.358 64.3548 102.961 63.4319C103.564 62.5091 104.469 62.2961 105.375 62.8285C105.415 62.8505 105.451 62.8807 105.48 62.9173C105.509 62.9539 105.53 62.9959 105.541 63.0409C105.553 63.0859 105.555 63.1329 105.548 63.1788C105.541 63.2247 105.524 63.2686 105.499 63.3077C105.451 63.3867 105.374 63.4439 105.284 63.4671C105.195 63.4903 105.1 63.4777 105.02 63.4319C104.221 62.9705 103.724 63.5384 103.547 63.8046C103.121 64.479 103.103 65.5083 103.76 65.9697C105.304 67.0878 108.09 70.6372 108.196 70.7792C113.964 78.1087 110.344 103.292 110.184 104.357C110.171 104.441 110.128 104.518 110.063 104.574C109.998 104.629 109.915 104.659 109.829 104.658Z" fill="#212529"/>
</svg>
